# Blender v3.1.2 OBJ File: 'water-purifier.blend'
# www.blender.org
mtllib water-purifier_col.mtl
o Cube_Cube.001
v -1.500000 -2.854089 -1.756121
v -1.500000 -3.500000 -1.387028
v 1.500000 -3.500000 -1.387028
v 1.500000 -2.854089 -1.756121
v -1.500000 -3.500000 1.696640
v -1.500000 -2.969121 2.000000
v 1.500000 -2.969121 2.000000
v 1.500000 -3.500000 1.696640
v -1.500000 -2.284751 2.000000
v 1.500000 -2.284751 2.000000
v -1.500000 2.003477 -1.080285
v -0.858633 3.500000 -1.415609
v -1.500000 0.515933 -1.997511
v -0.858633 2.343929 -2.128448
v 0.858633 2.343929 -2.128448
v 1.500000 0.515933 -1.997511
v 1.500000 2.003477 -1.080285
v 0.858633 3.500000 -1.415609
v -1.500000 2.003477 -0.225745
v -0.858633 3.500000 0.128472
v 1.500000 2.003477 -0.225745
v 0.858633 3.500000 0.128472
v -0.858633 1.999366 0.985977
v -1.500000 -1.613560 1.841133
v 1.500000 -1.613559 1.841133
v 0.858633 1.999366 0.985977
vt 0.125000 0.523068
vt 0.375000 0.523068
vt 0.375000 0.729675
vt 0.125000 0.729675
vt 0.398068 0.500000
vt 0.521568 0.500000
vt 0.573010 0.558183
vt 0.572085 0.610350
vt 0.442373 0.740071
vt 0.418402 0.750000
vt 0.393960 0.750000
vt 0.125000 0.500000
vt 0.375000 0.500000
vt 0.678447 0.536524
vt 0.821553 0.536524
vt 0.821553 0.633029
vt 0.678447 0.633029
vt 0.625000 0.803447
vt 0.625000 0.946553
vt 0.571406 0.946553
vt 0.571406 0.803447
vt 0.375000 0.750000
vt 0.125000 0.750000
vt 0.398068 0.250000
vt 0.521568 0.250000
vt 0.588558 0.303447
vt 0.588558 0.446553
vt 0.418402 1.000000
vt 0.393960 1.000000
vt 0.625000 0.303447
vt 0.625000 0.446553
vt 0.442373 0.750000
vt 0.442373 1.000000
vt 0.573010 0.191817
vt 0.625000 0.213476
vt 0.588558 0.250000
vt 0.588558 0.500000
vt 0.625000 0.536524
vt 0.572085 0.139650
vt 0.625000 0.116970
vt 0.625000 0.633029
vt 0.571406 0.686624
vt 0.442373 0.009929
vt 0.571406 0.063376
vt 0.375000 0.020325
vt 0.393960 0.000000
vt 0.418402 0.000000
vt 0.375000 0.226932
vn 0.0000 -1.0000 0.0000
vn 1.0000 0.0000 0.0000
vn 0.0000 -0.4961 -0.8682
vn 0.0000 1.0000 0.0000
vn 0.0000 0.4961 0.8682
vn 0.0000 -0.4961 0.8682
vn 0.0000 -0.0714 -0.9974
vn 0.0000 0.0000 1.0000
vn 0.0000 0.5249 -0.8512
vn -0.0000 0.2303 0.9731
vn -0.8579 0.2697 -0.4374
vn 0.8579 0.2697 -0.4374
vn 0.9191 0.3939 0.0000
vn -0.9191 0.3939 0.0000
vn 0.8534 0.2586 0.4526
vn -0.8534 0.2586 0.4526
vn -1.0000 -0.0000 0.0000
usemtl None
s off
f 2/1/1 3/2/1 8/3/1 5/4/1
f 3/2/2 4/5/2 16/6/2 17/7/2 21/8/2 25/9/2 10/10/2 7/11/2 8/3/2
f 3/2/3 2/1/3 1/12/3 4/13/3
f 18/14/4 12/15/4 20/16/4 22/17/4
f 22/18/5 20/19/5 23/20/5 26/21/5
f 5/4/6 8/3/6 7/22/6 6/23/6
f 1/24/7 13/25/7 14/26/7 15/27/7 16/6/7 4/5/7
f 7/11/8 10/10/8 9/28/8 6/29/8
f 12/30/9 18/31/9 15/27/9 14/26/9
f 9/28/10 10/10/10 25/32/10 26/21/10 23/20/10 24/33/10
f 13/25/11 11/34/11 12/35/11 14/36/11
f 17/7/12 16/6/12 15/37/12 18/38/12
f 21/8/13 17/7/13 18/14/13 22/17/13
f 11/34/14 19/39/14 20/40/14 12/35/14
f 25/9/15 21/8/15 22/41/15 26/42/15
f 19/39/16 24/43/16 23/44/16 20/40/16
f 5/45/17 6/46/17 9/47/17 24/43/17 19/39/17 11/34/17 13/25/17 1/24/17 2/48/17
