# Blender v2.93.4 OBJ File: 'acorn.blend'
# www.blender.org
o Acorn
v 0.266034 -0.372469 -0.270478
v 0.011167 0.039015 -0.415750
v -0.443963 -0.154534 0.003322
v 0.308437 0.056285 -0.296629
v -0.319108 -0.159488 0.311218
v 0.429323 0.054989 -0.020332
v -0.044603 -0.162521 0.451468
v 0.299861 0.057541 0.302857
v 0.304665 -0.160085 0.311933
v -0.023316 0.055629 0.441554
v 0.443151 -0.163995 -0.039229
v -0.304407 0.057374 0.302021
v 0.315125 -0.171241 -0.318932
v -0.430429 0.061037 -0.008707
v 0.013240 -0.193782 -0.433353
v -0.311840 0.069782 -0.292039
v 0.000000 -0.620779 0.006572
v -0.329895 -0.141506 -0.290472
v 0.375608 -0.367024 -0.022677
v 0.260044 -0.366250 0.263682
v -0.028760 -0.367977 0.372106
v -0.269775 -0.366041 0.261101
v -0.376044 -0.363004 0.001953
v -0.275800 -0.355344 -0.253246
v 0.006155 -0.388541 -0.376779
v 0.345348 0.057816 -0.334884
v 0.010613 0.040227 -0.470907
v 0.482749 0.054836 -0.020613
v 0.339010 0.057833 0.340593
v -0.022808 0.055679 0.495609
v -0.341125 0.057833 0.339747
v -0.483688 0.060840 -0.009266
v -0.350546 0.069829 -0.330513
v 0.000749 0.406148 0.001691
v 0.362885 0.197337 -0.341670
v 0.003991 0.187768 -0.495626
v 0.501328 0.191516 -0.003860
v 0.353051 0.191956 0.353051
v -0.005770 0.191352 0.503417
v -0.354822 0.190382 0.352114
v -0.501527 0.196948 -0.014039
v -0.354136 0.197266 -0.351918
v 0.293277 0.329225 -0.263553
v 0.003668 0.323047 -0.390255
v 0.399241 0.324106 0.004115
v 0.279260 0.321275 0.279260
v -0.000000 0.321275 0.394933
v -0.283422 0.316287 0.279434
v -0.394318 0.324847 -0.005245
v -0.274627 0.326467 -0.278790
v 0.001670 0.340347 -0.034318
v -0.031936 0.338873 0.020599
v 0.033115 0.340297 0.019971
v -0.001872 0.596160 -0.061834
v -0.086942 0.595871 0.086267
v 0.083230 0.596144 0.085584
v -0.191957 -0.503338 -0.186758
v 0.001268 -0.512276 -0.269979
v -0.267451 -0.506220 0.002298
v -0.190364 -0.506901 0.191084
v -0.007686 -0.508370 0.269753
v 0.188116 -0.506877 0.193098
v 0.267908 -0.505410 -0.002649
v 0.189052 -0.506929 -0.189739
vt 0.953883 0.385497
vt 0.953883 0.268821
vt 0.970696 0.268821
vt 0.970696 0.385497
vt 0.142837 0.141275
vt 0.246827 0.068160
vt 0.263686 0.101305
vt 0.169173 0.167650
vt 0.953884 0.735527
vt 0.953884 0.618850
vt 0.970696 0.618850
vt 0.970696 0.735527
vt 0.953883 0.152144
vt 0.953883 0.035467
vt 0.970696 0.035467
vt 0.970696 0.152144
vt 0.953883 0.502174
vt 0.970696 0.502174
vt 0.953884 0.968880
vt 0.953884 0.852203
vt 0.970696 0.852203
vt 0.970696 0.968880
vt 0.368043 0.030836
vt 0.494789 0.032784
vt 0.488771 0.069885
vt 0.373814 0.067520
vt 0.058584 0.617557
vt 0.022781 0.491890
vt 0.059518 0.486532
vt 0.094387 0.604395
vt 0.066338 0.243184
vt 0.099613 0.260174
vt 0.617704 0.073970
vt 0.602093 0.110035
vt 0.024960 0.364020
vt 0.061914 0.369933
vt 0.099708 0.376690
vt 0.098156 0.481151
vt 0.130369 0.583230
vt 0.580167 0.142637
vt 0.481976 0.106738
vt 0.379009 0.105115
vt 0.280303 0.135564
vt 0.195627 0.195167
vt 0.133357 0.278217
vt 0.227258 0.430827
vt 0.239663 0.492619
vt 0.486970 0.245312
vt 0.428499 0.232417
vt 0.367061 0.241596
vt 0.311186 0.269387
vt 0.266515 0.313188
vt 0.237503 0.368790
vt 0.878052 0.763481
vt 0.878052 0.675832
vt 0.917451 0.675832
vt 0.917451 0.763481
vt 0.919175 0.873925
vt 0.919175 0.961574
vt 0.879777 0.961574
vt 0.879777 0.873925
vt 0.878178 0.864373
vt 0.878178 0.776724
vt 0.917576 0.776724
vt 0.917576 0.864373
vt 0.912971 0.654764
vt 0.863402 0.626146
vt 0.912971 0.597528
vt 0.648410 0.325868
vt 0.601626 0.231338
vt 0.734175 0.176838
vt 0.769719 0.276237
vt 0.868954 0.130705
vt 0.913541 0.236917
vt 0.277655 0.973243
vt 0.150848 0.950760
vt 0.174767 0.796112
vt 0.287214 0.819556
vt 0.216416 0.651906
vt 0.318355 0.691536
vt 0.281638 0.519917
vt 0.372513 0.576951
vt 0.369868 0.403604
vt 0.447517 0.476403
vt 0.478098 0.306577
vt 0.540513 0.392195
vt 0.390654 0.956087
vt 0.380901 0.832171
vt 0.481565 0.746542
vt 0.402755 0.722859
vt 0.447624 0.624256
vt 0.519755 0.664726
vt 0.723496 0.485991
vt 0.686254 0.408476
vt 0.794274 0.369557
vt 0.813493 0.457646
vt 0.926221 0.353216
vt 0.911365 0.452909
vt 0.643181 0.531820
vt 0.591984 0.464958
vt 0.574499 0.592235
vt 0.511659 0.537543
vt 0.474948 0.923811
vt 0.463749 0.834550
vt 0.740885 0.609752
vt 0.684700 0.648268
vt 0.638149 0.697221
vt 0.603392 0.753587
vt 0.583163 0.812916
vt 0.581429 0.865118
vt 0.868377 0.578171
vt 0.804085 0.584822
vn -0.0069 -1.0000 -0.0027
vn -0.0008 -1.0000 0.0018
vn -0.0005 -1.0000 0.0017
vn -0.0069 -1.0000 -0.0024
vn -0.9921 -0.1254 0.0019
vn -0.7184 -0.0975 0.6888
vn -0.6929 0.2661 0.6701
vn -0.9654 0.2600 -0.0178
vn -0.0105 -0.9999 0.0066
vn -0.0345 -0.9994 -0.0019
vn -0.0336 -0.9994 -0.0023
vn -0.0122 -0.9999 0.0069
vn 0.0024 -1.0000 0.0042
vn 0.0044 -1.0000 -0.0022
vn 0.0043 -1.0000 -0.0020
vn 0.0024 -1.0000 0.0043
vn 0.0029 -0.9999 -0.0160
vn 0.0030 -0.9999 -0.0160
vn 0.0340 -0.9994 -0.0093
vn 0.0341 -0.9994 -0.0093
vn -0.0477 -0.0944 0.9944
vn 0.7033 -0.1425 0.6964
vn 0.6894 0.2389 0.6839
vn 0.0046 0.2667 0.9638
vn 0.9899 -0.1368 -0.0373
vn 0.6893 -0.1192 -0.7146
vn 0.6887 0.2548 -0.6788
vn 0.9720 0.2345 0.0130
vn -0.7045 -0.1502 -0.6937
vn -0.6681 0.2463 -0.7021
vn 0.0237 -0.1515 -0.9882
vn 0.0031 0.2292 -0.9734
vn 0.0068 0.8114 -0.5844
vn 0.4153 0.8182 -0.3976
vn 0.5852 0.8107 0.0210
vn 0.4097 0.8124 0.4150
vn -0.0008 0.8193 0.5734
vn -0.4153 0.8122 0.4097
vn -0.5674 0.8234 0.0070
vn -0.3879 0.8230 -0.4150
vn -0.0033 1.0000 0.0083
vn 0.8651 -0.0415 -0.4999
vn 0.0072 -0.2479 0.9688
vn -0.8615 -0.0609 -0.5041
vn -0.0016 1.0000 0.0010
vn -0.0080 -0.1178 -0.9930
vn -0.0109 0.0716 -0.9974
vn 0.6973 0.0900 -0.7111
vn 0.6845 -0.1096 -0.7207
vn 0.9983 0.0588 -0.0003
vn 0.9917 -0.1229 -0.0381
vn 0.7141 0.0311 0.6994
vn 0.7000 -0.1349 0.7012
vn -0.0114 0.0546 0.9984
vn -0.0581 -0.1392 0.9886
vn -0.7312 0.0827 0.6771
vn -0.7287 -0.1228 0.6737
vn -0.9972 0.0725 -0.0157
vn -0.9930 -0.1176 0.0088
vn -0.6976 0.0562 -0.7142
vn -0.7192 -0.1034 -0.6871
vn 0.8913 -0.4532 -0.0092
vn 0.6351 -0.4343 0.6388
vn -0.0021 -0.7516 0.6596
vn -0.0321 -0.4571 0.8888
vn -0.6498 -0.4604 0.6048
vn -0.4685 -0.7584 0.4532
vn -0.0202 -0.7824 -0.6225
vn -0.0224 -0.4615 -0.8868
vn 0.6217 -0.4698 -0.6267
vn 0.4558 -0.7776 -0.4332
vn 0.6501 -0.7597 0.0114
vn -0.4795 -0.7524 -0.4517
vn -0.6569 -0.4266 -0.6217
vn -0.6509 -0.7591 -0.0050
vn -0.8933 -0.4494 -0.0026
vn 0.4681 -0.7453 0.4747
vn -0.0009 -1.0000 0.0096
s 1
f 12/1/1 10/2/2 30/3/3 31/4/4
f 32/5/5 31/6/6 40/7/7 41/8/8
f 2/9/9 16/10/10 33/11/11 27/12/12
f 8/13/13 6/14/14 28/15/15 29/16/16
f 14/17/17 12/1/1 31/4/4 32/18/18
f 6/19/14 4/20/19 26/21/20 28/22/15
f 4/20/19 2/9/9 27/12/12 26/21/20
f 10/2/2 8/13/13 29/16/16 30/3/3
f 16/10/10 14/17/17 32/18/18 33/11/11
f 30/23/21 29/24/22 38/25/23 39/26/24
f 28/27/25 26/28/26 35/29/27 37/30/28
f 33/31/29 32/5/5 41/8/8 42/32/30
f 31/6/6 30/23/21 39/26/24 40/7/7
f 29/24/22 28/33/25 37/34/28 38/25/23
f 26/28/26 27/35/31 36/36/32 35/29/27
f 27/35/31 33/31/29 42/32/30 36/36/32
f 44/37/33 43/38/34 35/29/27 36/36/32
f 43/38/34 45/39/35 37/30/28 35/29/27
f 45/40/35 46/41/36 38/25/23 37/34/28
f 46/41/36 47/42/37 39/26/24 38/25/23
f 47/42/37 48/43/38 40/7/7 39/26/24
f 48/43/38 49/44/39 41/8/8 40/7/7
f 49/44/39 50/45/40 42/32/30 41/8/8
f 50/45/40 44/37/33 36/36/32 42/32/30
f 34/46/41 43/38/34 44/37/33
f 34/47/41 45/39/35 43/38/34
f 34/48/41 46/41/36 45/40/35
f 34/49/41 47/42/37 46/41/36
f 34/50/41 48/43/38 47/42/37
f 34/51/41 49/44/39 48/43/38
f 34/52/41 50/45/40 49/44/39
f 34/53/41 44/37/33 50/45/40
f 51/54/42 54/55/42 56/56/42 53/57/42
f 53/58/43 56/59/43 55/60/43 52/61/43
f 52/62/44 55/63/44 54/64/44 51/65/44
f 55/66/45 56/67/45 54/68/45
f 15/69/46 2/70/47 4/71/48 13/72/49
f 13/72/49 4/71/48 6/73/50 11/74/51
f 11/75/51 6/76/50 8/77/52 9/78/53
f 9/78/53 8/77/52 10/79/54 7/80/55
f 7/80/55 10/79/54 12/81/56 5/82/57
f 5/82/57 12/81/56 14/83/58 3/84/59
f 3/84/59 14/83/58 16/85/60 18/86/61
f 18/86/61 16/85/60 2/70/47 15/69/46
f 19/87/62 11/75/51 9/78/53 20/88/63
f 61/89/64 21/90/65 22/91/66 60/92/67
f 58/93/68 25/94/69 1/95/70 64/96/71
f 64/96/71 1/95/70 19/97/62 63/98/72
f 57/99/73 24/100/74 25/94/69 58/93/68
f 59/101/75 23/102/76 24/100/74 57/99/73
f 60/92/67 22/91/66 23/102/76 59/101/75
f 63/103/72 19/87/62 20/88/63 62/104/77
f 20/88/63 9/78/53 7/80/55 21/90/65
f 21/90/65 7/80/55 5/82/57 22/91/66
f 22/91/66 5/82/57 3/84/59 23/102/76
f 23/102/76 3/84/59 18/86/61 24/100/74
f 24/100/74 18/86/61 15/69/46 25/94/69
f 1/95/70 13/72/49 11/74/51 19/97/62
f 25/94/69 15/69/46 13/72/49 1/95/70
f 62/104/77 20/88/63 21/90/65 61/89/64
f 17/105/78 57/99/73 58/93/68
f 17/106/78 59/101/75 57/99/73
f 17/107/78 60/92/67 59/101/75
f 17/108/78 61/89/64 60/92/67
f 17/109/78 62/104/77 61/89/64
f 17/110/78 63/103/72 62/104/77
f 17/111/78 64/96/71 63/98/72
f 17/112/78 58/93/68 64/96/71
