# Blender v3.2.0 OBJ File: 'fuck you trb.blend'
# www.blender.org
mtllib raft-floor-steep_col.mtl
o Cube_Cube.006
v -2.000000 -2.000000 2.000000
v -2.000000 2.000000 -2.000000
v 2.000000 -2.000000 2.000000
v 2.000000 2.000000 -2.000000
v -2.000000 -1.904473 2.000000
v -2.000000 2.000000 -1.904473
v 2.000000 2.000000 -1.904473
v 2.000000 -1.904473 2.000000
v -2.000000 1.161305 -2.000000
v -2.000000 -2.000000 1.161305
v 2.000000 -2.000000 1.161305
v 2.000000 1.161305 -2.000000
vt 0.625000 0.500000
vt 0.875000 0.500000
vt 0.875000 0.505970
vt 0.625000 0.505970
vt 0.375000 0.697582
vt 0.572582 0.500000
vt 0.380970 0.750000
vt 0.375000 0.750000
vt 0.572582 0.250000
vt 0.625000 0.250000
vt 0.375000 0.000000
vt 0.380970 0.000000
vt 0.625000 0.244030
vt 0.375000 0.052418
vt 0.625000 0.750000
vt 0.625000 1.000000
vt 0.380970 1.000000
vt 0.375000 1.000000
vt 0.125000 0.697582
vt 0.125000 0.500000
vt 0.375000 0.500000
vt 0.125000 0.750000
vn 0.0000 1.0000 0.0000
vn 1.0000 0.0000 0.0000
vn 0.0000 0.0000 -1.0000
vn -1.0000 0.0000 0.0000
vn 0.0000 0.7071 0.7071
vn 0.0000 0.0000 1.0000
vn 0.0000 -0.7071 -0.7071
vn 0.0000 -1.0000 0.0000
usemtl None
s off
f 4/1/1 2/2/1 6/3/1 7/4/1
f 11/5/2 12/6/2 4/1/2 7/4/2 8/7/2 3/8/2
f 9/9/3 2/10/3 4/1/3 12/6/3
f 1/11/4 5/12/4 6/13/4 2/10/4 9/9/4 10/14/4
f 7/15/5 6/16/5 5/17/5 8/7/5
f 3/8/6 8/7/6 5/17/6 1/18/6
f 11/5/7 10/19/7 9/20/7 12/21/7
f 10/19/8 11/5/8 3/8/8 1/22/8
